<svg width="108" height="32" viewBox="0 0 108 32" fill="none" xmlns="http://www.w3.org/2000/svg">
<path d="M0 16C0 10.3995 0 7.59921 1.08993 5.46009C2.04867 3.57847 3.57847 2.04867 5.46009 1.08993C7.59921 0 10.3995 0 16 0H91.2769C96.8775 0 99.6777 0 101.817 1.08993C103.698 2.04867 105.228 3.57847 106.187 5.46009C107.277 7.59921 107.277 10.3995 107.277 16V16C107.277 21.6005 107.277 24.4008 106.187 26.5399C105.228 28.4215 103.698 29.9513 101.817 30.9101C99.6777 32 96.8775 32 91.2769 32H16C10.3995 32 7.59921 32 5.46009 30.9101C3.57847 29.9513 2.04867 28.4215 1.08993 26.5399C0 24.4008 0 21.6005 0 16V16Z" fill="white"/>
<path fill-rule="evenodd" clip-rule="evenodd" d="M20.836 10.2363C19.2304 10.2363 17.9288 11.5378 17.9288 13.1434C17.9288 14.749 19.2304 16.0505 20.836 16.0505C22.4415 16.0505 23.7431 14.749 23.7431 13.1434C23.7431 11.5378 22.4415 10.2363 20.836 10.2363ZM15.6926 13.1434C15.6926 10.3028 17.9953 8 20.836 8C23.6766 8 25.9794 10.3028 25.9794 13.1434C25.9794 15.984 23.6766 18.2868 20.836 18.2868C17.9953 18.2868 15.6926 15.984 15.6926 13.1434Z" fill="url(#paint0_linear_2_203)"/>
<path fill-rule="evenodd" clip-rule="evenodd" d="M17.199 16.7812C16.0637 15.6459 14.223 15.6459 13.0877 16.7812C11.9524 17.9165 11.9524 19.7572 13.0877 20.8925C14.223 22.0278 16.0637 22.0278 17.199 20.8925C18.3344 19.7572 18.3344 17.9165 17.199 16.7812ZM18.7803 15.2C16.7717 13.1913 13.5151 13.1913 11.5065 15.2C9.49785 17.2086 9.49785 20.4652 11.5065 22.4738C13.5151 24.4824 16.7717 24.4824 18.7803 22.4738C18.7809 22.4732 18.7815 22.4726 18.7821 22.472L24.4729 16.7812C25.6082 15.6459 27.4489 15.6459 28.5842 16.7812C29.7195 17.9165 29.7195 19.7572 28.5842 20.8925C27.4489 22.0278 25.6082 22.0278 24.4729 20.8925C24.0363 20.4559 23.3283 20.4559 22.8916 20.8925C22.455 21.3292 22.455 22.0372 22.8916 22.4738C24.9003 24.4824 28.1569 24.4824 30.1655 22.4738C32.1741 20.4652 32.1741 17.2086 30.1655 15.2C28.1569 13.1913 24.9003 13.1913 22.8916 15.2L20.836 17.2556L18.782 15.2016C18.7814 15.2011 18.7809 15.2005 18.7803 15.2Z" fill="url(#paint1_linear_2_203)"/>
<path fill-rule="evenodd" clip-rule="evenodd" d="M16.8107 12.0253C17.4282 12.0253 17.9288 12.5259 17.9288 13.1434C17.9288 14.749 19.2304 16.0505 20.836 16.0505C22.4415 16.0505 23.7431 14.749 23.7431 13.1434C23.7431 12.5259 24.2437 12.0253 24.8612 12.0253C25.4788 12.0253 25.9794 12.5259 25.9794 13.1434C25.9794 15.984 23.6766 18.2868 20.836 18.2868C17.9953 18.2868 15.6926 15.984 15.6926 13.1434C15.6926 12.5259 16.1932 12.0253 16.8107 12.0253Z" fill="url(#paint2_linear_2_203)"/>
<path fill-rule="evenodd" clip-rule="evenodd" d="M92.0606 15.7815C92.3337 15.8088 92.7433 15.8361 93.3442 15.8361C93.8631 15.8634 94.1089 15.6176 94.0816 15.0987V14.6071H89.9249L91.421 15.8545L90.6165 16.8194L88.9383 15.4203L89.6162 14.6071H87.6089C87.4177 15.6996 86.8715 16.6555 85.9429 17.4202H95.8295V20.7794H96.7853V21.9265H84.0038V20.7794H85.0143V17.9118C84.6594 17.4476 84.6593 17.4474 84.2496 16.7647C85.2328 16.1639 85.8883 15.5084 86.1068 14.5798H84.0585V13.4328H86.216C86.216 13.3679 86.2331 13.286 86.2538 13.1869C86.2593 13.1608 86.265 13.1335 86.2706 13.105V10.292H89.7938V9.5H91.4051V10.292H95.5563V13.4601H97.2769V14.6071H95.5563V15.1534C95.5837 16.3004 95.0374 16.9013 93.945 16.9286H92.3337C92.3079 16.6708 92.2091 16.3158 92.0833 15.8634L92.0606 15.7815ZM94.4093 18.6492H92.7433V20.8067H94.4093V18.6492ZM91.4597 18.6492H89.7938V20.8067H91.4597V18.6492ZM88.4828 18.6492H86.8715V20.8067H88.4828V18.6492ZM94.0269 13.4601V11.4664H87.6908V12.8046C87.6908 13.0231 87.6635 13.2416 87.6362 13.4601H90.0826L89.0478 12.5973L89.8524 11.6324L91.5306 13.0316L91.1733 13.4601H94.0269Z" fill="#272727"/>
<path d="M68.4366 11.5756H57.7034V15.3719C57.7581 18.5126 57.2938 20.834 56.3106 22.3361C56.2692 22.3031 56.2229 22.2675 56.1723 22.2286C56.0558 22.1392 55.9167 22.0324 55.7644 21.8992C55.4639 21.6807 55.2455 21.5168 55.1089 21.4076C55.6005 20.5336 55.9555 19.687 56.0921 18.8677C56.2287 18.0756 56.3106 16.874 56.3106 15.2626V10.3467H61.3085V9.7185H63.0291V10.3467H68.4366V11.5756Z" fill="#272727"/>
<path fill-rule="evenodd" clip-rule="evenodd" d="M41.672 11.4664V10.1554H54.2623V11.4937H49.1005L48.4997 12.9138H53.2245V22.1449H42.7098V12.8865H46.8337L47.4346 11.4664H41.672ZM44.2119 14.2794V16.9012H51.7224V14.2794H44.2119ZM44.2119 18.2121V20.8886H51.7224V18.2121H44.2119Z" fill="#272727"/>
<path fill-rule="evenodd" clip-rule="evenodd" d="M66.1152 12.7773V12.1765H64.7223V12.7773H61.1173V12.1765H59.7244V12.7773H57.84V14.0063H59.7244V16.0546H66.1152V14.0063H68.2728V12.7773H66.1152ZM64.7223 15.0441H61.1173V14.0063H64.7223V15.0441Z" fill="#272727"/>
<path fill-rule="evenodd" clip-rule="evenodd" d="M64.4493 20.2332C65.3778 19.687 66.2245 18.9769 66.9892 18.1303V16.9013H58.9325V18.0483C59.5257 18.7899 60.4098 19.4419 61.1999 20.0248C61.2828 20.0859 61.3647 20.1463 61.4451 20.2059C60.298 20.5336 58.9325 20.8067 57.3484 21.0252C57.5669 21.4622 57.7854 21.8992 58.0039 22.3088C60.0249 21.9538 61.6635 21.4622 62.8652 20.8614C64.0123 21.4076 65.6782 21.8446 67.8358 22.1996C67.9173 22.0134 67.9987 21.8222 68.0823 21.6261C68.1949 21.362 68.3113 21.0889 68.4366 20.8067C66.6341 20.6975 65.2959 20.5063 64.4493 20.2332ZM60.8169 18.0756H65.2413C64.6404 18.6219 63.8757 19.1408 62.9198 19.6324C62.1005 19.2227 61.3904 18.7038 60.8169 18.0756Z" fill="#272727"/>
<path d="M70.048 22.5V10.1282H81.9555V20.1513C81.9828 21.4349 81.4093 22.145 80.1803 22.145C79.8796 22.1626 79.3497 22.1574 78.7539 22.1515H78.7536C78.4297 22.1483 78.0862 22.145 77.7497 22.145C77.7497 21.4212 77.7428 21.3939 77.7394 21.3803L77.7392 21.3794C77.736 21.3663 77.7363 21.3523 77.7497 20.6975C78.0299 20.715 78.3775 20.71 78.7852 20.7042C79.0133 20.701 79.2603 20.6975 79.5249 20.6975C80.2076 20.7521 80.5354 20.5063 80.5081 19.8782V11.521H71.5501V22.5H70.048Z" fill="#272727"/>
<path fill-rule="evenodd" clip-rule="evenodd" d="M78.569 19.5231H80.1257C79.9667 19.1876 79.8192 18.8549 79.673 18.525C79.3669 17.8347 79.0663 17.1569 78.6782 16.4916C78.9968 15.8067 79.2225 15.1403 79.4473 14.4763C79.608 14.0018 79.7683 13.5285 79.9618 13.0504H78.8694C78.6039 13.6834 78.4606 13.9958 78.234 14.4898L78.2337 14.4905C78.1573 14.6571 78.0714 14.8443 77.9681 15.0714L76.6845 12.9958H75.2643C75.0719 13.3272 74.9297 13.5665 74.7984 13.7875C74.5943 14.131 74.4164 14.4304 74.1173 14.9622L73.0249 13.0777H71.9324C72.2024 13.6177 72.4354 14.1798 72.6776 14.7642C72.9009 15.3029 73.1321 15.8606 73.4072 16.437C73.0795 17.0651 72.6152 17.9118 72.0144 18.9769C71.9597 19.0588 71.9324 19.1134 71.9324 19.1681L71.7685 19.5504H73.2433C73.4875 19.0996 73.7059 18.6358 73.8718 18.2836C73.947 18.1237 74.0115 17.9867 74.0627 17.8845L74.8274 19.5504H77.1488L78.0228 17.9937L78.569 19.5231ZM76.5207 17.9118C76.4621 18.0215 76.4075 18.1235 76.3568 18.2181L76.3567 18.2183C76.2182 18.4767 76.109 18.6804 76.029 18.8403L74.7454 16.3004C75.1824 15.5357 75.5648 14.7437 75.8925 13.9244C76.1216 14.354 76.3507 14.7911 76.5838 15.2357C76.7952 15.639 77.0099 16.0486 77.2307 16.4643C77.103 16.7963 76.8798 17.2238 76.5835 17.7915L76.5207 17.9118Z" fill="#272727"/>
<defs>
<linearGradient id="paint0_linear_2_203" x1="16.9324" y1="13.0414" x2="24.9829" y2="13.0414" gradientUnits="userSpaceOnUse">
<stop stop-color="#6CE0FF"/>
<stop offset="1" stop-color="#07A8FF"/>
</linearGradient>
<linearGradient id="paint1_linear_2_203" x1="12.4553" y1="16.0045" x2="18.1478" y2="21.6971" gradientUnits="userSpaceOnUse">
<stop stop-color="#6CE0FF"/>
<stop offset="1" stop-color="#07A8FF"/>
</linearGradient>
<linearGradient id="paint2_linear_2_203" x1="16.9324" y1="13.0218" x2="24.9829" y2="13.0218" gradientUnits="userSpaceOnUse">
<stop stop-color="#FF7B83"/>
<stop offset="1" stop-color="#FF466B"/>
</linearGradient>
</defs>
</svg>
