<svg width="89" height="32" viewBox="0 0 89 32" fill="none" xmlns="http://www.w3.org/2000/svg">
<path d="M0 16C0 10.3995 0 7.59921 1.08993 5.46009C2.04867 3.57847 3.57847 2.04867 5.46009 1.08993C7.59921 0 10.3995 0 16 0H72.5612C78.1618 0 80.962 0 83.1011 1.08993C84.9828 2.04867 86.5126 3.57847 87.4713 5.46009C88.5612 7.59921 88.5612 10.3995 88.5612 16V16C88.5612 21.6005 88.5612 24.4008 87.4713 26.5399C86.5126 28.4215 84.9828 29.9513 83.1011 30.9101C80.962 32 78.1618 32 72.5612 32H16C10.3995 32 7.59921 32 5.46009 30.9101C3.57847 29.9513 2.04867 28.4215 1.08993 26.5399C0 24.4008 0 21.6005 0 16V16Z" fill="white"/>
<g clip-path="url(#clip0_2_187)">
<path d="M15.3334 16C15.3334 15.2928 15.6143 14.6145 16.1144 14.1144C16.6145 13.6143 17.2928 13.3333 18 13.3333C18.7073 13.3333 19.3855 13.6143 19.8856 14.1144C20.3857 14.6145 20.6667 15.2928 20.6667 16C20.6667 16.7073 20.3857 17.3855 19.8856 17.8856C19.3855 18.3857 18.7073 18.6667 18 18.6667C17.2928 18.6667 16.6145 18.3857 16.1144 17.8856C15.6143 17.3855 15.3334 16.7073 15.3334 16V16Z" fill="#1ABCFE"/>
<path d="M10 21.3333C10 20.6261 10.281 19.9478 10.7811 19.4477C11.2812 18.9476 11.9595 18.6667 12.6667 18.6667H15.3334V21.3333C15.3334 22.0406 15.0524 22.7189 14.5523 23.219C14.0522 23.719 13.3739 24 12.6667 24C11.9595 24 11.2812 23.719 10.7811 23.219C10.281 22.7189 10 22.0406 10 21.3333V21.3333Z" fill="#0ACF83"/>
<path d="M15.3334 8.00002V13.3333H18C18.7073 13.3333 19.3855 13.0524 19.8856 12.5523C20.3857 12.0522 20.6667 11.3739 20.6667 10.6667C20.6667 9.95944 20.3857 9.28116 19.8856 8.78106C19.3855 8.28097 18.7073 8.00002 18 8.00002H15.3334Z" fill="#FF7262"/>
<path d="M10 10.6667C10 11.3739 10.281 12.0522 10.781 12.5523C11.2811 13.0524 11.9594 13.3333 12.6667 13.3333H15.3333V8H12.6667C11.9594 8 11.2811 8.28095 10.781 8.78105C10.281 9.28114 10 9.95942 10 10.6667V10.6667Z" fill="#F24E1E"/>
<path d="M10 16C10 16.7073 10.281 17.3855 10.7811 17.8856C11.2812 18.3857 11.9595 18.6667 12.6667 18.6667H15.3334V13.3333H12.6667C11.9595 13.3333 11.2812 13.6143 10.7811 14.1144C10.281 14.6145 10 15.2928 10 16V16Z" fill="#A259FF"/>
</g>
<path d="M30.6875 21.3169H32.5946V16.801H36.7291V15.077H32.5946V12.4071H37.1258V10.6831H30.6875V21.3169Z" fill="#272727"/>
<path d="M39.2558 21.3169H41.1629V10.6831H39.2558V21.3169Z" fill="#272727"/>
<path d="M43.249 16.0076C43.249 19.181 45.7664 21.5 48.894 21.5C50.679 21.5 52.2504 20.7219 53.2421 19.5014V15.2143H48.482V16.9078H51.4418V18.8606C50.7858 19.4404 49.9009 19.776 48.894 19.776C46.758 19.776 45.1408 18.1741 45.1408 16.0076C45.1408 13.8564 46.758 12.224 48.894 12.224C49.9467 12.224 50.8926 12.5902 51.5791 13.2614L52.8454 12.1019C51.8232 11.0798 50.4501 10.5 48.894 10.5C45.7664 10.5 43.249 12.8343 43.249 16.0076Z" fill="#272727"/>
<path d="M55.4347 21.3169H57.235V14.1311L60.8813 19.7302L64.4972 14.1158V21.3169H66.2974V10.6831H64.6802L60.8813 16.6484L57.0672 10.6831H55.4347V21.3169Z" fill="#272727"/>
<path d="M68.0647 21.3169H70.0786L70.9482 19.1963H75.6777L76.5474 21.3169H78.5612L74.1216 10.6831H72.5044L68.0647 21.3169ZM71.5432 17.6248L73.313 13.292L75.0827 17.6248H71.5432Z" fill="#272727"/>
<defs>
<clipPath id="clip0_2_187">
<rect width="10.6875" height="16" fill="white" transform="translate(10 8)"/>
</clipPath>
</defs>
</svg>
