<svg xmlns="http://www.w3.org/2000/svg" width="108" height="32" fill="none" viewBox="0 0 108 32" preserveAspectRatio="xMinYMin meet">
    <g class="Baidu">
        <path class="box" fill="#272727" d="M0 16c0-5.6 0-8.4 1.09-10.54a10 10 0 0 1 4.37-4.37C7.6 0 10.4 0 16 0h75.277c5.6 0 8.4 0 10.54 1.09a10.004 10.004 0 0 1 4.37 4.37c1.09 2.14 1.09 4.94 1.09 10.54 0 5.6 0 8.4-1.09 10.54a10.005 10.005 0 0 1-4.37 4.37C99.677 32 96.877 32 91.277 32H16c-5.6 0-8.4 0-10.54-1.09a10 10 0 0 1-4.37-4.37C0 24.4 0 21.6 0 16Z"/>
        <g class="icon">
            <g class="Group 3">
                <path fill="url(#a)" fill-rule="evenodd" d="M20.836 10.236a2.907 2.907 0 1 0 0 5.815 2.907 2.907 0 0 0 0-5.815Zm-5.143 2.907a5.143 5.143 0 1 1 10.286 0 5.143 5.143 0 0 1-10.286 0Z" class="Ellipse 14 (Stroke)" clip-rule="evenodd"/>
                <path fill="url(#b)" fill-rule="evenodd" d="M17.199 16.781a2.907 2.907 0 1 0-4.111 4.112 2.907 2.907 0 0 0 4.111-4.112ZM18.78 15.2a5.143 5.143 0 1 0 .002 7.272l5.69-5.69a2.907 2.907 0 1 1 0 4.11 1.118 1.118 0 1 0-1.58 1.582 5.143 5.143 0 1 0 0-7.274l-2.056 2.056-2.054-2.054-.002-.002Z" class="Vector (Stroke)" clip-rule="evenodd"/>
                <path fill="url(#c)" fill-rule="evenodd" d="M16.81 12.025c.618 0 1.119.5 1.119 1.118a2.907 2.907 0 0 0 5.814 0 1.118 1.118 0 0 1 2.236 0 5.143 5.143 0 1 1-10.286 0c0-.617.5-1.118 1.118-1.118Z" class="Ellipse 15 (Stroke)" clip-rule="evenodd"/>
            </g>
        </g>
        <g class="name">
            <path fill="#fff" fill-rule="evenodd" d="M92.06 15.781c.274.028.683.055 1.284.055.52.027.765-.218.738-.737v-.492h-4.157l1.496 1.248-.805.964-1.678-1.399.678-.813H87.61c-.191 1.093-.737 2.049-1.666 2.813h9.886v3.36h.956v1.146H84.004V20.78h1.01v-2.867c-.355-.464-.355-.465-.764-1.147.983-.601 1.638-1.257 1.857-2.185h-2.049v-1.147h2.158c0-.065.017-.147.038-.246l.017-.082v-2.813h3.523V9.5h1.611v.792h4.151v3.168h1.72v1.147h-1.72v.546c.028 1.147-.519 1.748-1.611 1.776h-1.611c-.026-.258-.125-.613-.25-1.066l-.023-.082Zm2.35 2.868h-1.667v2.158h1.666v-2.158Zm-2.95 0h-1.666v2.158h1.666v-2.158Zm-2.977 0H86.87v2.158h1.612v-2.158Zm5.544-5.189v-1.994H87.69v1.339c0 .218-.028.437-.055.655h2.447l-1.035-.863.804-.965 1.678 1.4-.357.428h2.854Z" clip-rule="evenodd"/>
            <path fill="#fff" d="M68.437 11.576H57.703v3.796c.055 3.14-.41 5.462-1.392 6.964a10.332 10.332 0 0 0-.139-.107 7.86 7.86 0 0 1-.408-.33c-.3-.218-.519-.382-.655-.491.491-.874.846-1.721.983-2.54.137-.792.219-1.994.219-3.605v-4.916h4.998v-.628h1.72v.628h5.408v1.229Z"/>
            <path fill="#fff" fill-rule="evenodd" d="M41.672 11.466v-1.31h12.59v1.338H49.1l-.6 1.42h4.724v9.23H42.71v-9.257h4.124l.6-1.42h-5.762Zm2.54 2.813v2.622h7.51V14.28h-7.51Zm0 3.933v2.677h7.51v-2.677h-7.51ZM66.115 12.777v-.6h-1.393v.6h-3.605v-.6h-1.393v.6H57.84v1.23h1.884v2.048h6.391v-2.049h2.158v-1.229h-2.158Zm-1.393 2.267h-3.605v-1.038h3.605v1.038ZM64.45 20.233a10.85 10.85 0 0 0 2.54-2.103v-1.229h-8.058v1.147c.594.742 1.478 1.394 2.268 1.977l.245.18c-1.147.329-2.513.602-4.097.82.219.437.437.874.656 1.284 2.02-.355 3.66-.847 4.861-1.448 1.147.547 2.813.984 4.97 1.339.082-.187.164-.378.247-.574.113-.264.23-.537.355-.82-1.803-.108-3.141-.3-3.988-.573Zm-3.633-2.157h4.424c-.6.546-1.365 1.065-2.321 1.556-.82-.41-1.53-.928-2.103-1.556Z" clip-rule="evenodd"/>
            <path fill="#fff" d="M70.048 22.5V10.128h11.907v10.023c.028 1.284-.546 1.994-1.775 1.994-.3.018-.83.012-1.426.006-.324-.003-.668-.006-1.004-.006 0-.724-.007-.751-.01-.765-.004-.014-.004-.028.01-.682.28.017.627.012 1.035.006.228-.003.475-.006.74-.006.683.054 1.01-.192.983-.82v-8.357H71.55V22.5h-1.502Z"/>
            <path fill="#fff" fill-rule="evenodd" d="M78.569 19.523h1.557c-.16-.335-.307-.668-.453-.998-.306-.69-.607-1.368-.995-2.033.319-.685.544-1.352.77-2.016.16-.474.32-.948.514-1.426h-1.093c-.265.633-.408.946-.635 1.44l-.266.581-1.284-2.075h-1.42c-.192.331-.334.57-.466.791-.204.344-.382.643-.68 1.175l-1.093-1.884h-1.093c.27.54.503 1.102.746 1.686.223.539.454 1.097.73 1.673a93.414 93.414 0 0 1-1.394 2.54c-.054.082-.082.136-.082.191l-.163.382h1.474c.245-.45.463-.914.629-1.266l.19-.4.765 1.666h2.322l.874-1.556.546 1.53Zm-2.048-1.611-.164.306c-.139.259-.248.462-.328.622l-1.284-2.54a19.03 19.03 0 0 0 1.147-2.376c.23.43.459.867.692 1.312.211.403.426.813.647 1.228-.128.332-.351.76-.648 1.328l-.062.12Z" clip-rule="evenodd"/>
        </g>
    </g>
    <defs>
        <linearGradient id="a" x1="16.932" x2="24.983" y1="13.041" y2="13.041" class="paint0_linear_0" gradientUnits="userSpaceOnUse">
            <stop stop-color="#6CE0FF"/>
            <stop offset="1" stop-color="#07A8FF"/>
        </linearGradient>
        <linearGradient id="b" x1="12.455" x2="18.148" y1="16.005" y2="21.697" class="paint1_linear_0" gradientUnits="userSpaceOnUse">
            <stop stop-color="#6CE0FF"/>
            <stop offset="1" stop-color="#07A8FF"/>
        </linearGradient>
        <linearGradient id="c" x1="16.932" x2="24.983" y1="13.022" y2="13.022" class="paint2_linear_0" gradientUnits="userSpaceOnUse">
            <stop stop-color="#FF7B83"/>
            <stop offset="1" stop-color="#FF466B"/>
        </linearGradient>
    </defs>
</svg>
