<svg xmlns="http://www.w3.org/2000/svg" width="89" height="32" fill="none" viewBox="0 0 89 32" preserveAspectRatio="xMinYMin meet">
    <g class="tag/Light/Figma">
        <path class="box" fill="#272727" d="M0 16c0-5.6 0-8.4 1.09-10.54a10 10 0 0 1 4.37-4.37C7.6 0 10.4 0 16 0h56.561c5.6 0 8.401 0 10.54 1.09a10 10 0 0 1 4.37 4.37c1.09 2.14 1.09 4.94 1.09 10.54 0 5.6 0 8.4-1.09 10.54a10 10 0 0 1-4.37 4.37C80.962 32 78.161 32 72.561 32H16c-5.6 0-8.4 0-10.54-1.09a10 10 0 0 1-4.37-4.37C0 24.4 0 21.6 0 16Z"/>
        <g class="icon" clip-path="url(#a)">
            <path fill="#1ABCFE" d="M15.333 16a2.667 2.667 0 1 1 5.334 0 2.667 2.667 0 0 1-5.334 0Z" class="Vector"/>
            <path fill="#0ACF83" d="M10 21.333a2.667 2.667 0 0 1 2.667-2.666h2.666v2.666a2.667 2.667 0 1 1-5.333 0Z" class="Vector"/>
            <path fill="#FF7262" d="M15.333 8v5.333H18A2.667 2.667 0 0 0 18 8h-2.667Z" class="Vector"/>
            <path fill="#F24E1E" d="M10 10.667a2.667 2.667 0 0 0 2.667 2.666h2.666V8h-2.666A2.667 2.667 0 0 0 10 10.667Z" class="Vector"/>
            <path fill="#A259FF" d="M10 16a2.667 2.667 0 0 0 2.667 2.667h2.666v-5.334h-2.666A2.667 2.667 0 0 0 10 16Z" class="Vector"/>
        </g>
        <g class="name">
            <path fill="#fff" d="M30.688 21.317h1.907V16.8h4.134v-1.724h-4.134v-2.67h4.53v-1.724h-6.438v10.634ZM39.256 21.317h1.907V10.683h-1.907v10.634ZM43.249 16.008c0 3.173 2.517 5.492 5.645 5.492 1.785 0 3.356-.778 4.348-1.999v-4.287h-4.76v1.694h2.96v1.953c-.656.58-1.541.915-2.548.915-2.136 0-3.753-1.602-3.753-3.768 0-2.152 1.617-3.784 3.753-3.784 1.053 0 1.999.366 2.685 1.037l1.266-1.16C51.823 11.08 50.45 10.5 48.894 10.5c-3.128 0-5.645 2.334-5.645 5.508ZM55.435 21.317h1.8V14.13l3.646 5.6 3.616-5.615v7.2h1.8V10.684H64.68l-3.799 5.965-3.814-5.965h-1.632v10.634ZM68.065 21.317h2.014l.87-2.12h4.729l.87 2.12h2.013l-4.44-10.634h-1.617l-4.44 10.634Zm3.478-3.692 1.77-4.333 1.77 4.333h-3.54Z"/>
        </g>
    </g>
    <defs>
        <clipPath id="a" class="clip0_0">
            <path fill="#fff" d="M0 0h10.688v16H0z" transform="translate(10 8)"/>
        </clipPath>
    </defs>
</svg>