<svg xmlns="http://www.w3.org/2000/svg" width="115" height="32" fill="none" viewBox="0 0 115 32" preserveAspectRatio="xMinYMin meet">
    <g class="ZCOOL">
        <path class="box" fill="#272727" d="M0 16c0-5.6 0-8.4 1.09-10.54a10 10 0 0 1 4.37-4.37C7.6 0 10.4 0 16 0h82.627c5.601 0 8.401 0 10.54 1.09a9.994 9.994 0 0 1 4.37 4.37c1.09 2.14 1.09 4.94 1.09 10.54 0 5.6 0 8.4-1.09 10.54a9.994 9.994 0 0 1-4.37 4.37C107.028 32 104.228 32 98.627 32H16c-5.6 0-8.4 0-10.54-1.09a10 10 0 0 1-4.37-4.37C0 24.4 0 21.6 0 16Z"/>
        <g class="icon">
            <rect width="16" height="16" x="10" y="8" fill="#FDF250" rx="8"/>
            <path fill="#000" fill-rule="evenodd" d="M22.156 12.268c.09 1.24-.271 2.312-.991 3.372l.088-.019 1.007-.223.1.074a6.861 6.861 0 0 0-.174.321c-.128.245-.255.49-.438.683-.208.218-.459.395-.71.572a8.86 8.86 0 0 0-.4.292c-.104.083-.224.193-.259.314-.47 1.613-1.911 2.616-3.63 2.51-1.542-.095-2.856-1.368-3.077-2.982-.214-1.568.641-2.941 2.245-3.544.342-.13.704-.21 1.064-.289l.304-.068c.814-.19 1.486-.565 1.855-1.36.008-.018.027-.031.054-.05.016-.012.034-.025.055-.043.328.65.27 1.28-.024 2.049.187-.074.367-.139.541-.201.378-.136.725-.262 1.044-.438.317-.173.606-.399.912-.638.14-.109.283-.22.434-.332Zm-7.202 5.255c.057-.025.12-.051.187-.074l-1.086-.557.04.1c.113.294.218.566.56.61.09.01.185-.03.299-.08Zm3.482-.846-2.224.763c.365.32.765.465 1.237.298.514-.183.799-.577.987-1.06Z" class="Exclude" clip-rule="evenodd"/>
        </g>
        <g class="name">
            <path fill="#fff" d="M52.359 18.25c-.346.748-.058.978.633 1.497.23.23.345.402.288.575-.116.518-.749.979-1.382 1.267a4.394 4.394 0 0 1-1.784.402 5.924 5.924 0 0 1-4.145-1.726c-.204-.153-.318-.306-.461-.5l-.057-.076c-.115-.115-.288-.115-.346.115v.864c.058.805-.402 1.15-1.093 1.266h-7.023c-.633-.115-.979-.46-.979-1.036V19.63c0-.633.288-1.093.576-1.439l4.202-4.49h-4.087c-.403 0-.69-.288-.69-.806-.058-.978.114-2.533.863-2.878.115 0 .115.173.115.23-.115.23 0 .403.288.403h5.18c1.152 0 1.843 0 2.245-.115.173-.057.288 0 .23.173-.086.304-.075.64-.064.96.004.105.007.207.007.306 0 1.324 0 1.842-1.036 2.879l-3.569 3.914h3.972l.128-.013c.408-.04.49-.048.333-.678-.173-.576-.23-1.209-.23-1.9 0-1.611.632-3.108 1.669-4.144.69-.691 1.554-1.151 2.532-1.44.806-.23 1.497-.23 2.36-.114.158.031.312.071.462.11.398.105.774.203 1.15.12.23-.058.403-.173.576-.633.058-.116.345-.116.288.115-.115 1.093-.23 1.67-.518 2.245-.518 1.094-1.44 1.381-2.533 1.266-2.82-.345-3.684 3.915-1.036 4.778.978.346 1.9.173 2.705-.46.173-.116.346 0 .23.23Z"/>
            <path fill="#fff" fill-rule="evenodd" d="m79.874 17.79-.028.034c-.286.344-.69.83-1.526.886l-3.454-.172V13.99c0-1.612.288-2.072.633-2.36.06-.043.123-.085.187-.127.364-.242.769-.511.965-1.197v-.23c-.058-.058-.115-.058-.173.057-.288.403-.518.576-1.094.46-1.727-.402-3.626-.69-3.626 2.534v.345c0 .23-.173.345-.346 0 0-.058-.057-.115-.057-.115-.403-.864-.921-1.554-1.785-2.13a5.84 5.84 0 0 0-3.166-.921c-1.209 0-2.36.345-3.28 1.036-.577.46-.98 1.094-1.21 1.612-.057.115-.172.288-.23.115-.12-.28.065-.726.247-1.165.08-.193.16-.386.214-.562a.636.636 0 0 0 0-.46c-.058-.346-.23-.173-.23-.058-.173.748-1.037.288-1.44.058a4.457 4.457 0 0 0-2.303-.634c-1.611 0-3.05.634-4.144 1.727A5.923 5.923 0 0 0 52.3 16.12c0 1.612.576 3.108 1.612 4.202 1.036 1.036 2.59 1.612 4.202 1.612 1.209 0 3.8-.748 3.511-2.303 0-.067-.02-.174-.036-.263-.011-.062-.021-.116-.021-.14.057-.115.115-.057.172 0 .058.087.116.188.173.288.058.1.115.202.173.288.748 1.151 2.475 2.13 4.317 2.13.979 0 1.958-.23 2.763-.69.979-.519 1.67-1.382 2.13-2.361 0-.029.015-.043.03-.057.014-.015.028-.03.028-.058.115-.288.345-.346.345.058v2.302c0 .69.633.921 1.67.863h4.547c1.151 0 1.67-.402 1.785-1.266.067-.4.056-.743.046-1.05a4.055 4.055 0 0 1 .011-.62c.044-.522.186-.847.253-1 .022-.048.035-.079.035-.093.23-.23.058-.345-.173-.173Zm-20.032.057c-.46.46-1.036.69-1.727.69-.69 0-1.267-.287-1.727-.69-.46-.46-.69-1.036-.69-1.727 0-.69.287-1.267.69-1.727.46-.46 1.036-.69 1.727-.69.69 0 1.266.287 1.727.69.46.46.69 1.036.69 1.727a2.07 2.07 0 0 1-.69 1.727Zm8.347 0c-.46.46-1.036.69-1.727.69-.69 0-1.267-.287-1.727-.69-.46-.46-.69-1.036-.69-1.727 0-.69.287-1.267.69-1.727.46-.46 1.036-.69 1.727-.69.69 0 1.266.287 1.727.69.46.46.69 1.036.69 1.727 0 .69-.23 1.324-.69 1.727Z" clip-rule="evenodd"/>
            <path fill="#fff" d="M86.667 12.206h-2.533l.979-.288a3.962 3.962 0 0 1-.173-.46c-.057-.173-.172-.346-.288-.519-.115-.172-.23-.345-.345-.46l-1.209.288c.07.07.118.16.172.26.034.064.07.132.116.2.08.12.133.24.176.342.02.043.037.084.054.118.029.087.058.159.087.23.028.073.057.145.086.231h-2.188v1.382h5.066v-1.324ZM82.522 19.401l1.21-.288c-.116-1.612-.288-3.223-.576-4.778l-1.152.23c.23 1.612.46 3.224.518 4.836Z"/>
            <path fill="#fff" fill-rule="evenodd" d="M91.906 12.148c.402-.058.575-.23.69-.345.058-.058-.057.172-.172.402-.028.083-.016.18-.002.288.015.12.032.253.002.403-.058.403-.23.576-.691.576h-1.9v1.842h1.497c.518 0 .978.173.978.69v4.894c.058.518-.23.92-1.036.92h-3.799c-.576 0-.921-.172-.921-.748v-5.065c0-.518.345-.633.921-.633h.979V10.42h1.439v1.727h2.014Zm-.922 4.778c0-.173-.115-.173-.172-.173h-2.648c-.115 0-.173.058-.173.173v3.454c0 .115.058.115.115.115h2.763a.124.124 0 0 0 .115-.115v-3.454ZM102.613 13.53h1.208c.403 0 .576-.173.634-.518.039-.199.024-.342.011-.469a1.585 1.585 0 0 1-.011-.165c0-.23.115-.403.115-.403a1.41 1.41 0 0 0-.036.037l-.001.001h-.001v.001c-.106.112-.236.25-.595.25h-1.324V10.42h-1.267v1.842h-.806c.029-.201.072-.403.115-.604a8.04 8.04 0 0 0 .115-.605l-1.208-.23-.087.49c-.028.158-.057.316-.086.489-.058.345-.115.633-.23.92-.058.288-.173.576-.288.864a5.129 5.129 0 0 1-.173.389v-.274c-.057-.46-.23-.575-1.094-.575V12.09h1.267v-1.208h-5.239v1.208h1.152v1.037c-.806 0-1.094.057-1.094.633v7.368c0 .46.173.633 1.036.633h2.993c.576 0 .98-.115.98-.633v-6.77c.232.119.43.256.636.398.074.051.149.103.227.155.115-.173.23-.403.287-.633.097-.193.153-.426.202-.632l.029-.117h1.151v1.497h-2.475v1.267h5.871v-1.267h-2.014V13.53Zm-5.124.805h-.345v2.36h.46V14.45c0-.057 0-.086-.014-.1-.014-.015-.043-.015-.1-.015Zm-.978-2.245h-.691v1.037h.69V12.09Zm-1.727 2.245a.124.124 0 0 0-.115.115v2.764c.115-.173.23-.346.287-.518l.036-.138c.043-.165.08-.302.08-.438v-1.785h-.288Zm.345 3.684-.46-.575h-.058v.92h2.993v-.805h-.403c-.69 0-.863-.173-.863-.864v-2.36h-.403v1.382c0 .23 0 .46-.058.748-.057.634-.345 1.094-.748 1.555Zm-.403 2.418h2.763c.115 0 .173-.057.115-.115v-.92h-2.993v.92c0 .058 0 .115.115.115Z" clip-rule="evenodd"/>
            <path fill="#fff" fill-rule="evenodd" d="M103.591 16.983h-3.281c-.633 0-.978.173-.978.691v3.339c0 .403.057.69 1.036.69h2.993c.691.058 1.036-.114 1.094-.69v-3.281c0-.633-.461-.749-.864-.749Zm-.518 3.512h-2.36c-.058 0-.115 0-.115-.115v-1.957c0-.116 0-.173.115-.173h2.36c.115 0 .173 0 .173.115v2.015c-.058.057-.115.115-.173.115Z" clip-rule="evenodd"/>
            <path fill="#fff" d="M85.83 16.09c-.184 1.176-.366 2.343-.602 3.484l1.036-.346.173 1.382c-.26.086-.533.158-.806.23-.273.072-.547.144-.806.23-.518.173-1.036.346-1.554.461-.325.122-.679.215-1 .3-.135.035-.263.07-.382.103l-.345-1.497.148-.024c.31-.05.657-.107 1.003-.206l1.382-.345c.345-1.842.575-3.8.69-5.7l1.325.289c-.092.547-.177 1.094-.262 1.64Z"/>
        </g>
    </g>
</svg>
